<svg xmlns="http://www.w3.org/2000/svg" viewBox="0 0 800 220" width="800" height="220" role="img" aria-label="nRF Forge logo">
  <rect x="0" y="0" width="800" height="220" rx="16" fill="#0B2A4A"/>
  <g transform="translate(58,38)">
    <rect x="22" y="58" width="86" height="86" rx="12" fill="none" stroke="#35B6E0" stroke-width="5"/>
    <rect x="44" y="80" width="42" height="42" rx="6" fill="#35B6E0"/>
    <g stroke="#35B6E0" stroke-width="5" stroke-linecap="round">
      <line x1="40" y1="58" x2="40" y2="42"/>
      <line x1="65" y1="58" x2="65" y2="42"/>
      <line x1="90" y1="58" x2="90" y2="42"/>
      <line x1="40" y1="144" x2="40" y2="160"/>
      <line x1="65" y1="144" x2="65" y2="160"/>
      <line x1="90" y1="144" x2="90" y2="160"/>
      <line x1="22" y1="76" x2="6" y2="76"/>
      <line x1="22" y1="101" x2="6" y2="101"/>
      <line x1="22" y1="126" x2="6" y2="126"/>
      <line x1="108" y1="76" x2="124" y2="76"/>
      <line x1="108" y1="101" x2="124" y2="101"/>
      <line x1="108" y1="126" x2="124" y2="126"/>
    </g>
    <g fill="none" stroke="#7FDBFF" stroke-width="5" stroke-linecap="round">
      <path d="M 132 44 A 36 36 0 0 0 132 -4" transform="translate(8,56)"/>
      <path d="M 144 56 A 56 56 0 0 0 144 -20" transform="translate(8,60)"/>
    </g>
  </g>
  <g transform="translate(252,72)">
    <text x="0" y="40" font-family="Segoe UI, Helvetica, Arial, sans-serif" font-size="56" font-weight="700" fill="#FFFFFF">nRF <tspan fill="#35B6E0">Forge</tspan></text>
    <text x="2" y="84" font-family="Segoe UI, Helvetica, Arial, sans-serif" font-size="21" fill="#9FB8CF">AI-assisted Zephyr firmware for the nRF54LM20B</text>
    <text x="2" y="116" font-family="Segoe UI, Helvetica, Arial, sans-serif" font-size="16" fill="#6E8AA6">brainstorm → plan → build → review</text>
  </g>
</svg>
